<?xml version="1.0" standalone="no"?>
<!DOCTYPE svg PUBLIC "-//W3C//DTD SVG 20010904//EN" "http://www.w3.org/TR/2001/REC-SVG-20010904/DTD/svg10.dtd">
<!-- Created using Krita: https://krita.org -->
<svg xmlns="http://www.w3.org/2000/svg" 
    xmlns:xlink="http://www.w3.org/1999/xlink"
    xmlns:krita="http://krita.org/namespaces/svg/krita"
    xmlns:sodipodi="http://sodipodi.sourceforge.net/DTD/sodipodi-0.dtd"
    width="710.64pt"
    height="140.4pt"
    viewBox="0 0 710.64 140.4">
<defs>
<linearGradient id="linear" x1="0%" y1="0%" x2="0%" y2="100%">
<stop offset="0%" stop-color="#7615ff"/>
<stop offset="100%" stop-color="#380087"/>
</linearGradient>
</defs>
<path id="shape0" transform="matrix(0.999999979386979 0 0 0.999999979386979 8.14000443697202 106.140009892813)" fill="#ffffff" fill-rule="evenodd" stroke-opacity="1" stroke="url(#linear)" stroke-width="20px" stroke-linecap="round" stroke-linejoin="round" d="M61.56 0.36C63.48 0.36 65.64 0.32 68.04 0.24C70.44 0.16 73.2 0.08 76.32 0C77.28 1.92 78.08 4.88 78.72 8.88C79.36 12.88 79.68 16.32 79.68 19.2C76.88 19.52 73.36 19.86 69.12 20.22C64.88 20.58 58.78 21.04 50.82 21.6C42.86 22.16 37.96 22.44 36.12 22.44C35.96 22.44 35.42 22.24 34.5 21.84C33.58 21.44 32.42 20.78 31.02 19.86C29.62 18.94 28.26 17.86 26.94 16.62C25.62 15.38 24.5 13.72 23.58 11.64C22.66 9.56 22.2 7.32 22.2 4.92C22.52 -18.84 22.68 -31.72 22.68 -33.72C18.36 -33.72 14.36 -33.7 10.68 -33.66C7 -33.62 4.86 -33.58 4.26 -33.54C3.66 -33.5 3 -33.52 2.28 -33.6C1.88 -35.28 1.68 -37.2 1.68 -39.36C1.68 -43.68 1.96 -46.4 2.52 -47.52L3.12 -48.6C9.12 -49.16 14.4 -49.44 18.96 -49.44C21.76 -49.44 23.28 -49.44 23.52 -49.44C23.84 -52.88 24.06 -57.46 24.18 -63.18C24.3 -68.9 24.38 -73.9 24.42 -78.18C24.46 -82.46 24.52 -84.8 24.6 -85.2L25.2 -90L25.44 -91.44L27.48 -91.2C29.32 -90.96 31.52 -90.56 34.08 -90C35.12 -89.76 36.96 -89.48 39.6 -89.16C42.64 -88.68 44.76 -88.36 45.96 -88.2C47.72 -87.88 49.72 -87.56 51.96 -87.24L52.08 -69.36C52.08 -66.72 52.32 -59.64 52.8 -48.12C55.44 -48.36 57.6 -48.48 59.28 -48.48C61.28 -48.48 63.6 -48.4 66.24 -48.24C68.88 -48.08 71 -47.96 72.6 -47.88L75 -47.64C75.16 -47.4 75.36 -47.04 75.6 -46.56C76.16 -45.44 76.44 -42.72 76.44 -38.4C76.44 -36.24 76.24 -34.32 75.84 -32.64C75.84 -32.56 75.12 -32.56 73.68 -32.64C72.24 -32.72 69.62 -32.8 65.82 -32.88C62.02 -32.96 57.92 -33 53.52 -33C53.6 -30.76 53.9 -25.82 54.42 -18.18C54.94 -10.54 55.2 -6.4 55.2 -5.76C55.28 -4.88 56.08 -3.64 57.6 -2.04C59.12 -0.44 60.44 0.36 61.56 0.36M146.64 -36.6L146.4 -38.76C145.92 -41.48 145.4 -43.88 144.84 -45.96L144.36 -48L134.16 -48C128.72 -48 123.68 -47.84 119.04 -47.52C114.4 -47.2 111.92 -46.88 111.6 -46.56C111.28 -46.24 110.84 -44.68 110.28 -41.88C109.96 -40.12 109.56 -38.16 109.08 -36C108.2 -31.92 107.76 -29.88 107.76 -29.88C112.72 -31 119.04 -32.12 126.72 -33.24L146.64 -36.6M173.28 -31.56C173.28 -31.4 173.2 -31.2 173.04 -30.96C172.88 -30.72 172.38 -30.22 171.54 -29.46C170.7 -28.7 169.58 -28 168.18 -27.36C166.78 -26.72 164.58 -26.02 161.58 -25.26C158.58 -24.5 155.12 -23.88 151.2 -23.4C144.96 -22.6 138.1 -21.52 130.62 -20.16C123.14 -18.8 117.2 -17.64 112.8 -16.68L106.32 -15.24L106.2 -14.88C105.88 -11.6 105.68 -9.48 105.6 -8.52C105.44 -5.96 105.52 -4.56 105.84 -4.32C106.16 -4.08 113.18 -3.96 126.9 -3.96C140.62 -3.96 147.66 -4.08 148.02 -4.32C148.38 -4.56 148.52 -7.16 148.44 -12.12C148.44 -12.28 153.06 -12.9 162.3 -13.98C171.54 -15.06 176.16 -15.68 176.16 -15.84C176.72 -11.84 177 -9.44 177 -8.64C177 -7.84 176.68 -6.84 176.04 -5.64C174.52 -2.68 172.22 0.62 169.14 4.26C166.06 7.9 163.16 10.76 160.44 12.84L159.12 13.92L148.68 14.4C136.92 15.04 128.48 15.16 123.36 14.76C122.64 14.68 119.4 14.52 113.64 14.28C109.88 14.12 107.5 13.98 106.5 13.86C105.5 13.74 104.76 13.48 104.28 13.08C103.08 12.28 100.98 10.66 97.98 8.22C94.98 5.78 92.84 3.96 91.56 2.76C85.24 -3.16 81.84 -6.56 81.36 -7.44C80.96 -8.16 81.8 -12.88 83.88 -21.6C84.12 -22.72 84.58 -25 85.26 -28.44C85.94 -31.88 86.4 -34.04 86.64 -34.92C87.84 -39.08 89.2 -43.46 90.72 -48.06C92.24 -52.66 93.46 -56.28 94.38 -58.92C95.3 -61.56 95.84 -62.92 96 -63C96.32 -63.4 102.84 -64.16 115.56 -65.28C125.8 -66.24 137.24 -66.6 149.88 -66.36C156.92 -66.2 160.62 -66.04 160.98 -65.88C161.34 -65.72 162.24 -64.12 163.68 -61.08C166.4 -55 169.6 -45.16 173.28 -31.56M235.96 -50.4L225.76 -49.92C218.16 -49.52 214 -49.24 213.28 -49.08C213.28 -48.76 213.28 -48.34 213.28 -47.82C213.28 -47.3 213.28 -46.9 213.28 -46.62C213.28 -46.34 213.28 -46.16 213.28 -46.08C214.32 -45.44 215.68 -44.68 217.36 -43.8C219.04 -42.92 221.32 -41.76 224.2 -40.32C227.08 -38.88 229.56 -37.64 231.64 -36.6C235 -34.92 239.44 -32.74 244.96 -30.06C250.48 -27.38 255.28 -25.04 259.36 -23.04C263.44 -21.04 265.92 -19.8 266.8 -19.32C267.12 -14.12 267.08 -11.08 266.68 -10.2C265.48 -7.48 263.06 -4.16 259.42 -0.24C255.78 3.68 252.32 7.08 249.04 9.96L247.84 11.04L238.6 11.52C234.52 11.76 228.98 11.96 221.98 12.12C214.98 12.28 210.48 12.32 208.48 12.24C205.12 12.08 203 11.94 202.12 11.82C201.24 11.7 200.56 11.44 200.08 11.04C197.36 8.88 194.76 6.48 192.28 3.84C189.96 1.36 187.08 -3.48 183.64 -10.68C183.4 -11.16 183.64 -13.52 184.36 -17.76C186.12 -17.76 189.74 -17.86 195.22 -18.06C200.7 -18.26 204.54 -18.38 206.74 -18.42C208.94 -18.46 210.76 -18.4 212.2 -18.24C212.2 -18.16 212.2 -18.04 212.2 -17.88C212.12 -16.44 212.04 -15.16 211.96 -14.04C211.88 -12.92 211.84 -12.12 211.84 -11.64C211.84 -11 211.84 -10.68 211.84 -10.68C211.92 -10.68 211.96 -10.68 211.96 -10.68C211.96 -10.44 212.04 -10.28 212.2 -10.2C212.44 -9.96 216.76 -9.82 225.16 -9.78C233.56 -9.74 237.88 -9.84 238.12 -10.08L238.36 -9.96L238.36 -10.08C238.28 -11.04 238.24 -12.72 238.24 -15.12C237.36 -15.6 234.4 -17.04 229.36 -19.44C224.32 -21.84 220.28 -23.8 217.24 -25.32C213.88 -27 209.94 -28.9 205.42 -31.02C200.9 -33.14 197.04 -34.94 193.84 -36.42C190.64 -37.9 188.84 -38.72 188.44 -38.88C189.48 -43.12 190.66 -47.54 191.98 -52.14C193.3 -56.74 194.38 -60.34 195.22 -62.94C196.06 -65.54 196.52 -66.92 196.6 -67.08C196.92 -67.48 202.72 -68.24 214 -69.36C223.04 -70.32 233.2 -70.68 244.48 -70.44C250.72 -70.28 254 -70.12 254.32 -69.96C254.64 -69.8 255.44 -68.2 256.72 -65.16C259.84 -57.08 262.2 -49.44 263.8 -42.24C263.32 -42.16 262.84 -42.08 262.36 -42C261.16 -41.76 256.92 -41.5 249.64 -41.22C242.36 -40.94 238.2 -40.8 237.16 -40.8C237.08 -40.88 237.04 -40.96 237.04 -41.04C237.12 -42.32 237.16 -43.28 237.16 -43.92L235.96 -50.4M333.56 0.36C335.48 0.36 337.64 0.32 340.04 0.24C342.44 0.16 345.2 0.08 348.32 0C349.28 1.92 350.08 4.88 350.72 8.88C351.36 12.88 351.68 16.32 351.68 19.2C348.88 19.52 345.36 19.86 341.12 20.22C336.88 20.58 330.78 21.04 322.82 21.6C314.86 22.16 309.96 22.44 308.12 22.44C307.96 22.44 307.42 22.24 306.5 21.84C305.58 21.44 304.42 20.78 303.02 19.86C301.62 18.94 300.26 17.86 298.94 16.62C297.62 15.38 296.5 13.72 295.58 11.64C294.66 9.56 294.2 7.32 294.2 4.92C294.52 -18.84 294.68 -31.72 294.68 -33.72C290.36 -33.72 286.36 -33.7 282.68 -33.66C279 -33.62 276.86 -33.58 276.26 -33.54C275.66 -33.5 275 -33.52 274.28 -33.6C273.88 -35.28 273.68 -37.2 273.68 -39.36C273.68 -43.68 273.96 -46.4 274.52 -47.52L275.12 -48.6C281.12 -49.16 286.4 -49.44 290.96 -49.44C293.76 -49.44 295.28 -49.44 295.52 -49.44C295.84 -52.88 296.06 -57.46 296.18 -63.18C296.3 -68.9 296.38 -73.9 296.42 -78.18C296.46 -82.46 296.52 -84.8 296.6 -85.2L297.2 -90L297.44 -91.44L299.48 -91.2C301.32 -90.96 303.52 -90.56 306.08 -90C307.12 -89.76 308.96 -89.48 311.6 -89.16C314.64 -88.68 316.76 -88.36 317.96 -88.2C319.72 -87.88 321.72 -87.56 323.96 -87.24L324.08 -69.36C324.08 -66.72 324.32 -59.64 324.8 -48.12C327.44 -48.36 329.6 -48.48 331.28 -48.48C333.28 -48.48 335.6 -48.4 338.24 -48.24C340.88 -48.08 343 -47.96 344.6 -47.88L347 -47.64C347.16 -47.4 347.36 -47.04 347.6 -46.56C348.16 -45.44 348.44 -42.72 348.44 -38.4C348.44 -36.24 348.24 -34.32 347.84 -32.64C347.84 -32.56 347.12 -32.56 345.68 -32.64C344.24 -32.72 341.62 -32.8 337.82 -32.88C334.02 -32.96 329.92 -33 325.52 -33C325.6 -30.76 325.9 -25.82 326.42 -18.18C326.94 -10.54 327.2 -6.4 327.2 -5.76C327.28 -4.88 328.08 -3.64 329.6 -2.04C331.12 -0.44 332.44 0.36 333.56 0.36M399.56 -2.88C401.4 -14.24 402.36 -20.08 402.44 -20.4C402.76 -22.48 403 -24.16 403.16 -25.44C403.4 -26.96 403.6 -28.64 403.76 -30.48L404 -33.36L401.6 -32.76C401.28 -32.76 400.84 -32.68 400.28 -32.52C399.72 -32.36 399.22 -32.24 398.78 -32.16C398.34 -32.08 398 -32 397.76 -31.92C397.12 -31.84 394.36 -31.42 389.48 -30.66C384.6 -29.9 381.68 -29.44 380.72 -29.28C379.12 -28.88 377.88 -28.6 377 -28.44L375.68 -28.2L375.44 -10.92C375.44 -8.92 375.48 -6.94 375.56 -4.98C375.64 -3.02 375.72 -1.5 375.8 -0.42C375.88 0.66 375.92 1.24 375.92 1.32C376.08 1.48 379.52 1.32 386.24 0.84C392.96 0.36 396.88 0.04 398 -0.12C398.56 -0.28 398.92 -0.48 399.08 -0.72C399.24 -0.96 399.4 -1.68 399.56 -2.88M427.28 -39.24C427.28 -36.2 426.34 -28.62 424.46 -16.5C422.58 -4.38 420.72 4.24 418.88 9.36L416.84 15.12L411.32 15.48C405.48 15.72 397.36 15.82 386.96 15.78C376.56 15.74 368.52 15.6 362.84 15.36C357.08 15.12 354.02 14.94 353.66 14.82C353.3 14.7 353.12 12.6 353.12 8.52L353.12 -8.88C352.96 -9.04 353.32 -18.32 354.2 -36.72C354.44 -41.36 355.18 -50.36 356.42 -63.72C357.66 -77.08 358.32 -84.72 358.4 -86.64C358.56 -90.64 358.76 -92.78 359 -93.06C359.24 -93.34 360.28 -93.6 362.12 -93.84C369.56 -94.88 374.44 -95.52 376.76 -95.76C378.68 -95.92 380.08 -95.8 380.96 -95.4C381.2 -95.24 381.28 -94.88 381.2 -94.32C380.56 -89.92 379.84 -84.2 379.04 -77.16C378.24 -70.12 377.58 -64.06 377.06 -58.98C376.54 -53.9 376.28 -51.28 376.28 -51.12C376.44 -50.4 377.68 -50.28 380 -50.76C380.48 -50.84 382.46 -51.3 385.94 -52.14C389.42 -52.98 393.14 -53.78 397.1 -54.54C401.06 -55.3 404.68 -55.8 407.96 -56.04C408.28 -56.04 409.18 -55.48 410.66 -54.36C412.14 -53.24 413.78 -51.84 415.58 -50.16C417.38 -48.48 419.18 -46.82 420.98 -45.18C422.78 -43.54 424.28 -42.16 425.48 -41.04L427.28 -39.24M456.48 15.96C456.24 15.96 455.16 16.12 453.24 16.44C452.12 16.6 450 16.92 446.88 17.4C444.24 17.8 442.4 18.12 441.36 18.36C440.32 18.52 439.12 18.68 437.76 18.84L435.72 19.2L435.48 17.76L434.88 12.96C434.8 12.32 434.46 8.56 433.86 1.68C433.26 -5.2 432.62 -12.56 431.94 -20.4C431.26 -28.24 430.88 -32.56 430.8 -33.36C430.8 -33.52 430.72 -35.68 430.56 -39.84C430.4 -44 430.22 -48.58 430.02 -53.58C429.82 -58.58 429.72 -61.96 429.72 -63.72C429 -84.76 428.88 -95.36 429.36 -95.52C430 -95.76 434.3 -95.56 442.26 -94.92C450.22 -94.28 455.76 -93.68 458.88 -93.12L461.16 -92.76L461.04 -91.56C460.64 -89.24 459.8 -76.96 458.52 -54.72C457.08 -26.88 456.36 -9.24 456.36 -1.8L456.48 15.96M470.64 -34.92C471.84 -39.08 473.2 -43.46 474.72 -48.06C476.24 -52.66 477.46 -56.28 478.38 -58.92C479.3 -61.56 479.84 -62.92 480 -63C480.32 -63.4 486.84 -64.16 499.56 -65.28C509.8 -66.24 521.24 -66.6 533.88 -66.36C540.92 -66.2 544.62 -66.04 544.98 -65.88C545.34 -65.72 546.24 -64.12 547.68 -61.08C553.92 -47.24 558.08 -32.16 560.16 -15.84C560.72 -11.84 561 -9.44 561 -8.64C561 -7.84 560.68 -6.84 560.04 -5.64C558.52 -2.68 556.22 0.62 553.14 4.26C550.06 7.9 547.16 10.76 544.44 12.84L543.12 13.92L532.68 14.4C520.92 15.04 512.48 15.16 507.36 14.76C506.64 14.68 503.4 14.52 497.64 14.28C493.88 14.12 491.5 13.98 490.5 13.86C489.5 13.74 488.76 13.48 488.28 13.08C487.08 12.28 484.98 10.66 481.98 8.22C478.98 5.78 476.84 3.96 475.56 2.76C469.24 -3.16 465.84 -6.56 465.36 -7.44C464.96 -8.16 465.8 -12.88 467.88 -21.6C468.12 -22.72 468.58 -25 469.26 -28.44C469.94 -31.88 470.4 -34.04 470.64 -34.92M531.96 -4.32C532.36 -4.56 532.52 -7.64 532.44 -13.56C532.36 -26.28 531.16 -37.08 528.84 -45.96L528.36 -48L518.16 -48C512.72 -48 507.68 -47.84 503.04 -47.52C498.4 -47.2 495.92 -46.88 495.6 -46.56C495.28 -46.24 494.84 -44.68 494.28 -41.88C493.8 -39.24 493.4 -37.28 493.08 -36C492.44 -32.8 491.74 -28.28 490.98 -22.44C490.22 -16.6 489.76 -11.96 489.6 -8.52C489.44 -5.96 489.52 -4.56 489.84 -4.32C490.16 -4.08 497.18 -3.96 510.9 -3.96C524.62 -3.96 531.64 -4.08 531.96 -4.32M654.64 17.76C642.08 9.28 630.96 1.4 621.28 -5.88C618.24 -8.12 616.6 -9.24 616.36 -9.24C615.88 -9.24 613.62 -6.22 609.58 -0.18C605.54 5.86 602.52 10.72 600.52 14.4C599.64 16 599.08 16.98 598.84 17.34C598.6 17.7 598.36 17.88 598.12 17.88C597.4 17.88 594.78 16.86 590.26 14.82C585.74 12.78 582.28 11.08 579.88 9.72C578.36 8.84 576.3 7.54 573.7 5.82C571.1 4.1 569.68 3.08 569.44 2.76C569.12 2.44 570.44 0.44 573.4 -3.24C579.16 -10.44 584.76 -17.2 590.2 -23.52C592.12 -25.76 593.08 -27.02 593.08 -27.3C593.08 -27.58 592.28 -28.4 590.68 -29.76C589.48 -30.72 586.44 -33.26 581.56 -37.38C576.68 -41.5 573.52 -44.2 572.08 -45.48C567.52 -49.48 565.2 -51.72 565.12 -52.2C564.96 -52.76 567.88 -54.28 573.88 -56.76C579.88 -59.24 586.16 -61.48 592.72 -63.48L594.28 -63.96L595.96 -62.04C599.4 -58.12 603.32 -54.04 607.72 -49.8L610.96 -46.68L620.08 -55.8C626.72 -62.36 632.96 -68.2 638.8 -73.32C644.64 -78.44 647.96 -81 648.76 -81C650.04 -81 654.34 -79.92 661.66 -77.76C668.98 -75.6 673.84 -74.04 676.24 -73.08C676.96 -72.68 677.6 -72.4 678.16 -72.24C678.72 -72.08 679 -71.9 679 -71.7C679 -71.5 677.92 -70.64 675.76 -69.12C667.2 -62.96 659.44 -56.64 652.48 -50.16C648.24 -46.24 644 -42.06 639.76 -37.62C635.52 -33.18 633.4 -30.72 633.4 -30.24C633.4 -29.44 638.04 -26.56 647.32 -21.6C656.6 -16.64 664.88 -12.6 672.16 -9.48C674.32 -8.52 676 -7.76 677.2 -7.2C678.64 -6.56 679.42 -6.24 679.54 -6.24C679.66 -6.24 680.12 -6.06 680.92 -5.7C681.72 -5.34 683.96 -4.44 687.64 -3C691.32 -1.48 693.2 -0.6 693.28 -0.36C693.36 -0.2 691.96 1.26 689.08 4.02C686.2 6.78 683.12 9.56 679.84 12.36C677.6 14.36 674.58 16.84 670.78 19.8C666.98 22.76 664.94 24.24 664.66 24.24C664.38 24.24 661.04 22.08 654.64 17.76" sodipodi:nodetypes="ccccccccccccccccccccccccccccccccccccccccccccccccccccccccccccccccccccccccccccccccccccccccccccccccccccccccccccccccccccccccccccccccccccccccccccccccccccccccccccccccccccccccccccccccccccccccccccccccccccccccccccccccccccccccccccccccccccccccccccccccccccccccccccccccccccccccccccccccccccccccccccccccccccccccccccccccccccccccccccccccccccccccccccccccccccccccccccccccccccccccccccc"/>
<path id="shape0" transform="matrix(0.999999979386979 0 0 0.999999979386979 8.14000443697202 106.140009892813)" fill="#ffffff" fill-rule="evenodd" style="z-index: 3;" d="M61.56 0.36C63.48 0.36 65.64 0.32 68.04 0.24C70.44 0.16 73.2 0.08 76.32 0C77.28 1.92 78.08 4.88 78.72 8.88C79.36 12.88 79.68 16.32 79.68 19.2C76.88 19.52 73.36 19.86 69.12 20.22C64.88 20.58 58.78 21.04 50.82 21.6C42.86 22.16 37.96 22.44 36.12 22.44C35.96 22.44 35.42 22.24 34.5 21.84C33.58 21.44 32.42 20.78 31.02 19.86C29.62 18.94 28.26 17.86 26.94 16.62C25.62 15.38 24.5 13.72 23.58 11.64C22.66 9.56 22.2 7.32 22.2 4.92C22.52 -18.84 22.68 -31.72 22.68 -33.72C18.36 -33.72 14.36 -33.7 10.68 -33.66C7 -33.62 4.86 -33.58 4.26 -33.54C3.66 -33.5 3 -33.52 2.28 -33.6C1.88 -35.28 1.68 -37.2 1.68 -39.36C1.68 -43.68 1.96 -46.4 2.52 -47.52L3.12 -48.6C9.12 -49.16 14.4 -49.44 18.96 -49.44C21.76 -49.44 23.28 -49.44 23.52 -49.44C23.84 -52.88 24.06 -57.46 24.18 -63.18C24.3 -68.9 24.38 -73.9 24.42 -78.18C24.46 -82.46 24.52 -84.8 24.6 -85.2L25.2 -90L25.44 -91.44L27.48 -91.2C29.32 -90.96 31.52 -90.56 34.08 -90C35.12 -89.76 36.96 -89.48 39.6 -89.16C42.64 -88.68 44.76 -88.36 45.96 -88.2C47.72 -87.88 49.72 -87.56 51.96 -87.24L52.08 -69.36C52.08 -66.72 52.32 -59.64 52.8 -48.12C55.44 -48.36 57.6 -48.48 59.28 -48.48C61.28 -48.48 63.6 -48.4 66.24 -48.24C68.88 -48.08 71 -47.96 72.6 -47.88L75 -47.64C75.16 -47.4 75.36 -47.04 75.6 -46.56C76.16 -45.44 76.44 -42.72 76.44 -38.4C76.44 -36.24 76.24 -34.32 75.84 -32.64C75.84 -32.56 75.12 -32.56 73.68 -32.64C72.24 -32.72 69.62 -32.8 65.82 -32.88C62.02 -32.96 57.92 -33 53.52 -33C53.6 -30.76 53.9 -25.82 54.42 -18.18C54.94 -10.54 55.2 -6.4 55.2 -5.76C55.28 -4.88 56.08 -3.64 57.6 -2.04C59.12 -0.44 60.44 0.36 61.56 0.36M146.64 -36.6L146.4 -38.76C145.92 -41.48 145.4 -43.88 144.84 -45.96L144.36 -48L134.16 -48C128.72 -48 123.68 -47.84 119.04 -47.52C114.4 -47.2 111.92 -46.88 111.6 -46.56C111.28 -46.24 110.84 -44.68 110.28 -41.88C109.96 -40.12 109.56 -38.16 109.08 -36C108.2 -31.92 107.76 -29.88 107.76 -29.88C112.72 -31 119.04 -32.12 126.72 -33.24L146.64 -36.6M173.28 -31.56C173.28 -31.4 173.2 -31.2 173.04 -30.96C172.88 -30.72 172.38 -30.22 171.54 -29.46C170.7 -28.7 169.58 -28 168.18 -27.36C166.78 -26.72 164.58 -26.02 161.58 -25.26C158.58 -24.5 155.12 -23.88 151.2 -23.4C144.96 -22.6 138.1 -21.52 130.62 -20.16C123.14 -18.8 117.2 -17.64 112.8 -16.68L106.32 -15.24L106.2 -14.88C105.88 -11.6 105.68 -9.48 105.6 -8.52C105.44 -5.96 105.52 -4.56 105.84 -4.32C106.16 -4.08 113.18 -3.96 126.9 -3.96C140.62 -3.96 147.66 -4.08 148.02 -4.32C148.38 -4.56 148.52 -7.16 148.44 -12.12C148.44 -12.28 153.06 -12.9 162.3 -13.98C171.54 -15.06 176.16 -15.68 176.16 -15.84C176.72 -11.84 177 -9.44 177 -8.64C177 -7.84 176.68 -6.84 176.04 -5.64C174.52 -2.68 172.22 0.62 169.14 4.26C166.06 7.9 163.16 10.76 160.44 12.84L159.12 13.92L148.68 14.4C136.92 15.04 128.48 15.16 123.36 14.76C122.64 14.68 119.4 14.52 113.64 14.28C109.88 14.12 107.5 13.98 106.5 13.86C105.5 13.74 104.76 13.48 104.28 13.08C103.08 12.28 100.98 10.66 97.98 8.22C94.98 5.78 92.84 3.96 91.56 2.76C85.24 -3.16 81.84 -6.56 81.36 -7.44C80.96 -8.16 81.8 -12.88 83.88 -21.6C84.12 -22.72 84.58 -25 85.26 -28.44C85.94 -31.88 86.4 -34.04 86.64 -34.92C87.84 -39.08 89.2 -43.46 90.72 -48.06C92.24 -52.66 93.46 -56.28 94.38 -58.92C95.3 -61.56 95.84 -62.92 96 -63C96.32 -63.4 102.84 -64.16 115.56 -65.28C125.8 -66.24 137.24 -66.6 149.88 -66.36C156.92 -66.2 160.62 -66.04 160.98 -65.88C161.34 -65.72 162.24 -64.12 163.68 -61.08C166.4 -55 169.6 -45.16 173.28 -31.56M235.96 -50.4L225.76 -49.92C218.16 -49.52 214 -49.24 213.28 -49.08C213.28 -48.76 213.28 -48.34 213.28 -47.82C213.28 -47.3 213.28 -46.9 213.28 -46.62C213.28 -46.34 213.28 -46.16 213.28 -46.08C214.32 -45.44 215.68 -44.68 217.36 -43.8C219.04 -42.92 221.32 -41.76 224.2 -40.32C227.08 -38.88 229.56 -37.64 231.64 -36.6C235 -34.92 239.44 -32.74 244.96 -30.06C250.48 -27.38 255.28 -25.04 259.36 -23.04C263.44 -21.04 265.92 -19.8 266.8 -19.32C267.12 -14.12 267.08 -11.08 266.68 -10.2C265.48 -7.48 263.06 -4.16 259.42 -0.24C255.78 3.68 252.32 7.08 249.04 9.96L247.84 11.04L238.6 11.52C234.52 11.76 228.98 11.96 221.98 12.12C214.98 12.28 210.48 12.32 208.48 12.24C205.12 12.08 203 11.94 202.12 11.82C201.24 11.7 200.56 11.44 200.08 11.04C197.36 8.88 194.76 6.48 192.28 3.84C189.96 1.36 187.08 -3.48 183.64 -10.68C183.4 -11.16 183.64 -13.52 184.36 -17.76C186.12 -17.76 189.74 -17.86 195.22 -18.06C200.7 -18.26 204.54 -18.38 206.74 -18.42C208.94 -18.46 210.76 -18.4 212.2 -18.24C212.2 -18.16 212.2 -18.04 212.2 -17.88C212.12 -16.44 212.04 -15.16 211.96 -14.04C211.88 -12.92 211.84 -12.12 211.84 -11.64C211.84 -11 211.84 -10.68 211.84 -10.68C211.92 -10.68 211.96 -10.68 211.96 -10.68C211.96 -10.44 212.04 -10.28 212.2 -10.2C212.44 -9.96 216.76 -9.82 225.16 -9.78C233.56 -9.74 237.88 -9.84 238.12 -10.08L238.36 -9.96L238.36 -10.08C238.28 -11.04 238.24 -12.72 238.24 -15.12C237.36 -15.6 234.4 -17.04 229.36 -19.44C224.32 -21.84 220.28 -23.8 217.24 -25.32C213.88 -27 209.94 -28.9 205.42 -31.02C200.9 -33.14 197.04 -34.94 193.84 -36.42C190.64 -37.9 188.84 -38.72 188.44 -38.88C189.48 -43.12 190.66 -47.54 191.98 -52.14C193.3 -56.74 194.38 -60.34 195.22 -62.94C196.06 -65.54 196.52 -66.92 196.6 -67.08C196.92 -67.48 202.72 -68.24 214 -69.36C223.04 -70.32 233.2 -70.68 244.48 -70.44C250.72 -70.28 254 -70.12 254.32 -69.96C254.64 -69.8 255.44 -68.2 256.72 -65.16C259.84 -57.08 262.2 -49.44 263.8 -42.24C263.32 -42.16 262.84 -42.08 262.36 -42C261.16 -41.76 256.92 -41.5 249.64 -41.22C242.36 -40.94 238.2 -40.8 237.16 -40.8C237.08 -40.88 237.04 -40.96 237.04 -41.04C237.12 -42.32 237.16 -43.28 237.16 -43.92L235.96 -50.4M333.56 0.36C335.48 0.36 337.64 0.32 340.04 0.24C342.44 0.16 345.2 0.08 348.32 0C349.28 1.92 350.08 4.88 350.72 8.88C351.36 12.88 351.68 16.32 351.68 19.2C348.88 19.52 345.36 19.86 341.12 20.22C336.88 20.58 330.78 21.04 322.82 21.6C314.86 22.16 309.96 22.44 308.12 22.44C307.96 22.44 307.42 22.24 306.5 21.84C305.58 21.44 304.42 20.78 303.02 19.86C301.62 18.94 300.26 17.86 298.94 16.62C297.62 15.38 296.5 13.72 295.58 11.64C294.66 9.56 294.2 7.32 294.2 4.92C294.52 -18.84 294.68 -31.72 294.68 -33.72C290.36 -33.72 286.36 -33.7 282.68 -33.66C279 -33.62 276.86 -33.58 276.26 -33.54C275.66 -33.5 275 -33.52 274.28 -33.6C273.88 -35.28 273.68 -37.2 273.68 -39.36C273.68 -43.68 273.96 -46.4 274.52 -47.52L275.12 -48.6C281.12 -49.16 286.4 -49.44 290.96 -49.44C293.76 -49.44 295.28 -49.44 295.52 -49.44C295.84 -52.88 296.06 -57.46 296.18 -63.18C296.3 -68.9 296.38 -73.9 296.42 -78.18C296.46 -82.46 296.52 -84.8 296.6 -85.2L297.2 -90L297.44 -91.44L299.48 -91.2C301.32 -90.96 303.52 -90.56 306.08 -90C307.12 -89.76 308.96 -89.48 311.6 -89.16C314.64 -88.68 316.76 -88.36 317.96 -88.2C319.72 -87.88 321.72 -87.56 323.96 -87.24L324.08 -69.36C324.08 -66.72 324.32 -59.64 324.8 -48.12C327.44 -48.36 329.6 -48.48 331.28 -48.48C333.28 -48.48 335.6 -48.4 338.24 -48.24C340.88 -48.08 343 -47.96 344.6 -47.88L347 -47.64C347.16 -47.4 347.36 -47.04 347.6 -46.56C348.16 -45.44 348.44 -42.72 348.44 -38.4C348.44 -36.24 348.24 -34.32 347.84 -32.64C347.84 -32.56 347.12 -32.56 345.68 -32.64C344.24 -32.72 341.62 -32.8 337.82 -32.88C334.02 -32.96 329.92 -33 325.52 -33C325.6 -30.76 325.9 -25.82 326.42 -18.18C326.94 -10.54 327.2 -6.4 327.2 -5.76C327.28 -4.88 328.08 -3.64 329.6 -2.04C331.12 -0.44 332.44 0.36 333.56 0.36M399.56 -2.88C401.4 -14.24 402.36 -20.08 402.44 -20.4C402.76 -22.48 403 -24.16 403.16 -25.44C403.4 -26.96 403.6 -28.64 403.76 -30.48L404 -33.36L401.6 -32.76C401.28 -32.76 400.84 -32.68 400.28 -32.52C399.72 -32.36 399.22 -32.24 398.78 -32.16C398.34 -32.08 398 -32 397.76 -31.92C397.12 -31.84 394.36 -31.42 389.48 -30.66C384.6 -29.9 381.68 -29.44 380.72 -29.28C379.12 -28.88 377.88 -28.6 377 -28.44L375.68 -28.2L375.44 -10.92C375.44 -8.92 375.48 -6.94 375.56 -4.98C375.64 -3.02 375.72 -1.5 375.8 -0.42C375.88 0.66 375.92 1.24 375.92 1.32C376.08 1.48 379.52 1.32 386.24 0.84C392.96 0.36 396.88 0.04 398 -0.12C398.56 -0.28 398.92 -0.48 399.08 -0.72C399.24 -0.96 399.4 -1.68 399.56 -2.88M427.28 -39.24C427.28 -36.2 426.34 -28.62 424.46 -16.5C422.58 -4.38 420.72 4.24 418.88 9.36L416.84 15.12L411.32 15.48C405.48 15.72 397.36 15.82 386.96 15.78C376.56 15.74 368.52 15.6 362.84 15.36C357.08 15.12 354.02 14.94 353.66 14.82C353.3 14.7 353.12 12.6 353.12 8.52L353.12 -8.88C352.96 -9.04 353.32 -18.32 354.2 -36.72C354.44 -41.36 355.18 -50.36 356.42 -63.72C357.66 -77.08 358.32 -84.72 358.4 -86.64C358.56 -90.64 358.76 -92.78 359 -93.06C359.24 -93.34 360.28 -93.6 362.12 -93.84C369.56 -94.88 374.44 -95.52 376.76 -95.76C378.68 -95.92 380.08 -95.8 380.96 -95.4C381.2 -95.24 381.28 -94.88 381.2 -94.32C380.56 -89.92 379.84 -84.2 379.04 -77.16C378.24 -70.12 377.58 -64.06 377.06 -58.98C376.54 -53.9 376.28 -51.28 376.28 -51.12C376.44 -50.4 377.68 -50.28 380 -50.76C380.48 -50.84 382.46 -51.3 385.94 -52.14C389.42 -52.98 393.14 -53.78 397.1 -54.54C401.06 -55.3 404.68 -55.8 407.96 -56.04C408.28 -56.04 409.18 -55.48 410.66 -54.36C412.14 -53.24 413.78 -51.84 415.58 -50.16C417.38 -48.48 419.18 -46.82 420.98 -45.18C422.78 -43.54 424.28 -42.16 425.48 -41.04L427.28 -39.24M456.48 15.96C456.24 15.96 455.16 16.12 453.24 16.44C452.12 16.6 450 16.92 446.88 17.4C444.24 17.8 442.4 18.12 441.36 18.36C440.32 18.52 439.12 18.68 437.76 18.84L435.72 19.2L435.48 17.76L434.88 12.96C434.8 12.32 434.46 8.56 433.86 1.68C433.26 -5.2 432.62 -12.56 431.94 -20.4C431.26 -28.24 430.88 -32.56 430.8 -33.36C430.8 -33.52 430.72 -35.68 430.56 -39.84C430.4 -44 430.22 -48.58 430.02 -53.58C429.82 -58.58 429.72 -61.96 429.72 -63.72C429 -84.76 428.88 -95.36 429.36 -95.52C430 -95.76 434.3 -95.56 442.26 -94.92C450.22 -94.28 455.76 -93.68 458.88 -93.12L461.16 -92.76L461.04 -91.56C460.64 -89.24 459.8 -76.96 458.52 -54.72C457.08 -26.88 456.36 -9.24 456.36 -1.8L456.48 15.96M470.64 -34.92C471.84 -39.08 473.2 -43.46 474.72 -48.06C476.24 -52.66 477.46 -56.28 478.38 -58.92C479.3 -61.56 479.84 -62.92 480 -63C480.32 -63.4 486.84 -64.16 499.56 -65.28C509.8 -66.24 521.24 -66.6 533.88 -66.36C540.92 -66.2 544.62 -66.04 544.98 -65.88C545.34 -65.72 546.24 -64.12 547.68 -61.08C553.92 -47.24 558.08 -32.16 560.16 -15.84C560.72 -11.84 561 -9.44 561 -8.64C561 -7.84 560.68 -6.84 560.04 -5.64C558.52 -2.68 556.22 0.62 553.14 4.26C550.06 7.9 547.16 10.76 544.44 12.84L543.12 13.92L532.68 14.4C520.92 15.04 512.48 15.16 507.36 14.76C506.64 14.68 503.4 14.52 497.64 14.28C493.88 14.12 491.5 13.98 490.5 13.86C489.5 13.74 488.76 13.48 488.28 13.08C487.08 12.28 484.98 10.66 481.98 8.22C478.98 5.78 476.84 3.96 475.56 2.76C469.24 -3.16 465.84 -6.56 465.36 -7.44C464.96 -8.16 465.8 -12.88 467.88 -21.6C468.12 -22.72 468.58 -25 469.26 -28.44C469.94 -31.88 470.4 -34.04 470.64 -34.92M531.96 -4.32C532.36 -4.56 532.52 -7.64 532.44 -13.56C532.36 -26.28 531.16 -37.08 528.84 -45.96L528.36 -48L518.16 -48C512.72 -48 507.68 -47.84 503.04 -47.52C498.4 -47.2 495.92 -46.88 495.6 -46.56C495.28 -46.24 494.84 -44.68 494.28 -41.88C493.8 -39.24 493.4 -37.28 493.08 -36C492.44 -32.8 491.74 -28.28 490.98 -22.44C490.22 -16.6 489.76 -11.96 489.6 -8.52C489.44 -5.96 489.52 -4.56 489.84 -4.32C490.16 -4.08 497.18 -3.96 510.9 -3.96C524.62 -3.96 531.64 -4.08 531.96 -4.32M654.64 17.76C642.08 9.28 630.96 1.4 621.28 -5.88C618.24 -8.12 616.6 -9.24 616.36 -9.24C615.88 -9.24 613.62 -6.22 609.58 -0.18C605.54 5.86 602.52 10.72 600.52 14.4C599.64 16 599.08 16.98 598.84 17.34C598.6 17.7 598.36 17.88 598.12 17.88C597.4 17.88 594.78 16.86 590.26 14.82C585.74 12.78 582.28 11.08 579.88 9.72C578.36 8.84 576.3 7.54 573.7 5.82C571.1 4.1 569.68 3.08 569.44 2.76C569.12 2.44 570.44 0.44 573.4 -3.24C579.16 -10.44 584.76 -17.2 590.2 -23.52C592.12 -25.76 593.08 -27.02 593.08 -27.3C593.08 -27.58 592.28 -28.4 590.68 -29.76C589.48 -30.72 586.44 -33.26 581.56 -37.38C576.68 -41.5 573.52 -44.2 572.08 -45.48C567.52 -49.48 565.2 -51.72 565.12 -52.2C564.96 -52.76 567.88 -54.28 573.88 -56.76C579.88 -59.24 586.16 -61.48 592.72 -63.48L594.28 -63.96L595.96 -62.04C599.4 -58.12 603.32 -54.04 607.72 -49.8L610.96 -46.68L620.08 -55.8C626.72 -62.36 632.96 -68.2 638.8 -73.32C644.64 -78.44 647.96 -81 648.76 -81C650.04 -81 654.34 -79.92 661.66 -77.76C668.98 -75.6 673.84 -74.04 676.24 -73.08C676.96 -72.68 677.6 -72.4 678.16 -72.24C678.72 -72.08 679 -71.9 679 -71.7C679 -71.5 677.92 -70.64 675.76 -69.12C667.2 -62.96 659.44 -56.64 652.48 -50.16C648.24 -46.24 644 -42.06 639.76 -37.62C635.52 -33.18 633.4 -30.72 633.4 -30.24C633.4 -29.44 638.04 -26.56 647.32 -21.6C656.6 -16.64 664.88 -12.6 672.16 -9.48C674.32 -8.52 676 -7.76 677.2 -7.2C678.64 -6.56 679.42 -6.24 679.54 -6.24C679.66 -6.24 680.12 -6.06 680.92 -5.7C681.72 -5.34 683.96 -4.44 687.64 -3C691.32 -1.48 693.2 -0.6 693.28 -0.36C693.36 -0.2 691.96 1.26 689.08 4.02C686.2 6.78 683.12 9.56 679.84 12.36C677.6 14.36 674.58 16.84 670.78 19.8C666.98 22.76 664.94 24.24 664.66 24.24C664.38 24.24 661.04 22.08 654.64 17.76" sodipodi:nodetypes="ccccccccccccccccccccccccccccccccccccccccccccccccccccccccccccccccccccccccccccccccccccccccccccccccccccccccccccccccccccccccccccccccccccccccccccccccccccccccccccccccccccccccccccccccccccccccccccccccccccccccccccccccccccccccccccccccccccccccccccccccccccccccccccccccccccccccccccccccccccccccccccccccccccccccccccccccccccccccccccccccccccccccccccccccccccccccccccccccccccccccccccc"/>
</svg>
