<?xml version="1.0" standalone="no"?>
<!DOCTYPE svg PUBLIC "-//W3C//DTD SVG 20010904//EN" "http://www.w3.org/TR/2001/REC-SVG-20010904/DTD/svg10.dtd">
<!-- Created using Krita: https://krita.org -->
<svg xmlns="http://www.w3.org/2000/svg" 
    xmlns:xlink="http://www.w3.org/1999/xlink"
    xmlns:krita="http://krita.org/namespaces/svg/krita"
    xmlns:sodipodi="http://sodipodi.sourceforge.net/DTD/sodipodi-0.dtd"
    width="138pt"
    height="138pt"
    viewBox="0 0 100 138">
<defs>
<linearGradient id="linear" x1="0%" y1="0%" x2="0%" y2="100%">
<stop offset="0%" stop-color="#7615ff"/>
<stop offset="100%" stop-color="#380087"/>
</linearGradient>
</defs>
<path id="shape0" transform="matrix(0.999999979386979 0 0 0.999999979386979 8.12915925813999 106.122340371198)" fill="#ffffff" fill-rule="evenodd" stroke-opacity="1" stroke="url(#linear)" stroke-width="20px" stroke-linecap="round" stroke-linejoin="round" d="M61.56 0.36C63.48 0.36 65.64 0.32 68.04 0.24C70.44 0.16 73.2 0.08 76.32 0C77.28 1.92 78.08 4.88 78.72 8.88C79.36 12.88 79.68 16.32 79.68 19.2C76.88 19.52 73.36 19.86 69.12 20.22C64.88 20.58 58.78 21.04 50.82 21.6C42.86 22.16 37.96 22.44 36.12 22.44C35.96 22.44 35.42 22.24 34.5 21.84C33.58 21.44 32.42 20.78 31.02 19.86C29.62 18.94 28.26 17.86 26.94 16.62C25.62 15.38 24.5 13.72 23.58 11.64C22.66 9.56 22.2 7.32 22.2 4.92C22.52 -18.84 22.68 -31.72 22.68 -33.72C18.36 -33.72 14.36 -33.7 10.68 -33.66C7 -33.62 4.86 -33.58 4.26 -33.54C3.66 -33.5 3 -33.52 2.28 -33.6C1.88 -35.28 1.68 -37.2 1.68 -39.36C1.68 -43.68 1.96 -46.4 2.52 -47.52L3.12 -48.6C9.12 -49.16 14.4 -49.44 18.96 -49.44C21.76 -49.44 23.28 -49.44 23.52 -49.44C23.84 -52.88 24.06 -57.46 24.18 -63.18C24.3 -68.9 24.38 -73.9 24.42 -78.18C24.46 -82.46 24.52 -84.8 24.6 -85.2L25.2 -90L25.44 -91.44L27.48 -91.2C29.32 -90.96 31.52 -90.56 34.08 -90C35.12 -89.76 36.96 -89.48 39.6 -89.16C42.64 -88.68 44.76 -88.36 45.96 -88.2C47.72 -87.88 49.72 -87.56 51.96 -87.24L52.08 -69.36C52.08 -66.72 52.32 -59.64 52.8 -48.12C55.44 -48.36 57.6 -48.48 59.28 -48.48C61.28 -48.48 63.6 -48.4 66.24 -48.24C68.88 -48.08 71 -47.96 72.6 -47.88L75 -47.64C75.16 -47.4 75.36 -47.04 75.6 -46.56C76.16 -45.44 76.44 -42.72 76.44 -38.4C76.44 -36.24 76.24 -34.32 75.84 -32.64C75.84 -32.56 75.12 -32.56 73.68 -32.64C72.24 -32.72 69.62 -32.8 65.82 -32.88C62.02 -32.96 57.92 -33 53.52 -33C53.6 -30.76 53.9 -25.82 54.42 -18.18C54.94 -10.54 55.2 -6.4 55.2 -5.76C55.28 -4.88 56.08 -3.64 57.6 -2.04C59.12 -0.44 60.44 0.36 61.56 0.36" sodipodi:nodetypes="cccccccccccccccccccccccccccccccccccccccccccccccc"/>
<path id="shape0" transform="matrix(0.999999979386979 0 0 0.999999979386979 8.12915925813999 106.122340371198)" fill="#ffffff" fill-rule="evenodd" stroke-opacity="0" stroke="#000000" stroke-width="0" stroke-linecap="square" stroke-linejoin="bevel" d="M61.56 0.36C63.48 0.36 65.64 0.32 68.04 0.24C70.44 0.16 73.2 0.08 76.32 0C77.28 1.92 78.08 4.88 78.72 8.88C79.36 12.88 79.68 16.32 79.68 19.2C76.88 19.52 73.36 19.86 69.12 20.22C64.88 20.58 58.78 21.04 50.82 21.6C42.86 22.16 37.96 22.44 36.12 22.44C35.96 22.44 35.42 22.24 34.5 21.84C33.58 21.44 32.42 20.78 31.02 19.86C29.62 18.94 28.26 17.86 26.94 16.62C25.62 15.38 24.5 13.72 23.58 11.64C22.66 9.56 22.2 7.32 22.2 4.92C22.52 -18.84 22.68 -31.72 22.68 -33.72C18.36 -33.72 14.36 -33.7 10.68 -33.66C7 -33.62 4.86 -33.58 4.26 -33.54C3.66 -33.5 3 -33.52 2.28 -33.6C1.88 -35.28 1.68 -37.2 1.68 -39.36C1.68 -43.68 1.96 -46.4 2.52 -47.52L3.12 -48.6C9.12 -49.16 14.4 -49.44 18.96 -49.44C21.76 -49.44 23.28 -49.44 23.52 -49.44C23.84 -52.88 24.06 -57.46 24.18 -63.18C24.3 -68.9 24.38 -73.9 24.42 -78.18C24.46 -82.46 24.52 -84.8 24.6 -85.2L25.2 -90L25.44 -91.44L27.48 -91.2C29.32 -90.96 31.52 -90.56 34.08 -90C35.12 -89.76 36.96 -89.48 39.6 -89.16C42.64 -88.68 44.76 -88.36 45.96 -88.2C47.72 -87.88 49.72 -87.56 51.96 -87.24L52.08 -69.36C52.08 -66.72 52.32 -59.64 52.8 -48.12C55.44 -48.36 57.6 -48.48 59.28 -48.48C61.28 -48.48 63.6 -48.4 66.24 -48.24C68.88 -48.08 71 -47.96 72.6 -47.88L75 -47.64C75.16 -47.4 75.36 -47.04 75.6 -46.56C76.16 -45.44 76.44 -42.72 76.44 -38.4C76.44 -36.24 76.24 -34.32 75.84 -32.64C75.84 -32.56 75.12 -32.56 73.68 -32.64C72.24 -32.72 69.62 -32.8 65.82 -32.88C62.02 -32.96 57.92 -33 53.52 -33C53.6 -30.76 53.9 -25.82 54.42 -18.18C54.94 -10.54 55.2 -6.4 55.2 -5.76C55.28 -4.88 56.08 -3.64 57.6 -2.04C59.12 -0.44 60.44 0.36 61.56 0.36" sodipodi:nodetypes="cccccccccccccccccccccccccccccccccccccccccccccccc"/>
</svg>
